<?xml version="1.0" encoding="UTF-8"?><svg id="Capa_2" xmlns="http://www.w3.org/2000/svg" viewBox="0 0 2300.6 455.8"><defs><style>.cls-1{fill-rule:evenodd;}.cls-1,.cls-2,.cls-3{stroke-width:0px;}.cls-1,.cls-3{fill:#ffe526;}.cls-2{fill:#245ba7;}</style></defs><g id="Capa_1-2"><g id="Artwork_1"><path class="cls-3" d="m2281.83,0H646.06c-10.36,0-18.77,8.4-18.77,18.78v418.25c0,10.37,8.41,18.77,18.77,18.77h1635.77c10.36,0,18.77-8.4,18.77-18.77V18.78c0-10.38-8.41-18.78-18.77-18.78"/><path class="cls-2" d="m581.21,0H18.74C8.38,0,0,8.4,0,18.78v418.25c0,10.37,8.38,18.77,18.74,18.77h562.46c10.34,0,18.75-8.4,18.75-18.77V18.78c0-10.38-8.41-18.78-18.75-18.78"/><path class="cls-2" d="m1174.44,156.94c-59.9,0-109.6,43.16-109.64,106.06.04,62.93,49.73,106.07,109.64,106.07s109.61-43.15,109.67-106.07c-.06-62.91-49.74-106.06-109.67-106.06m.57,168.56c-.19,0-.38,0-.57,0s-.36,0-.54,0c-36.61,0-61.83-28.23-61.83-62.5s25.22-62.49,61.83-62.49c.18,0,.36.02.54.02.19,0,.38-.02.57-.02,36.59,0,61.82,28.23,61.82,62.49s-25.23,62.5-61.82,62.5"/><path class="cls-2" d="m1018.39,288.13c-18.1,21.67-45.31,35.46-75.77,35.46-54.49,0-98.69-44.18-98.69-98.7s44.19-98.69,98.69-98.69c30.14,0,57.06,13.5,75.17,34.76l34.32-30.1c-26.89-30.7-66.71-50.15-111.16-50.15-80.95,0-146.58,64.56-146.58,144.17s65.64,144.18,146.58,144.18c44.77,0,84.8-19.72,111.69-50.8l-34.25-30.15Z"/><path class="cls-2" d="m1648.97,156.66c-59.99,0-109.8,43.62-109.8,106.23v192.69h47.32v-104.39c17.82,11.48,39.39,17.91,62.48,17.91,60,0,109.75-43.22,109.81-106.22-.06-63.02-49.81-106.23-109.81-106.23m.55,168.8c-.19,0-.36-.02-.55-.02s-.38.02-.56.02c-36.65,0-61.92-28.27-61.92-62.58s25.27-62.61,61.92-62.61c.18,0,.38.02.56.02.19,0,.36-.02.55-.02,36.64,0,61.92,28.27,61.92,62.61s-25.28,62.58-61.92,62.58"/><path class="cls-2" d="m1411.63,156.66c-59.99,0-109.78,43.62-109.78,106.23v192.69h47.32v-104.39c17.82,11.48,39.35,17.91,62.46,17.91,60,0,109.75-43.22,109.81-106.22-.06-63.02-49.81-106.23-109.81-106.23m.55,168.8c-.19,0-.36-.02-.55-.02s-.36.02-.56.02c-36.65,0-61.9-28.27-61.9-62.58s25.25-62.61,61.9-62.61c.2,0,.38.02.56.02.19,0,.36-.02.55-.02,36.66,0,61.92,28.27,61.92,62.61s-25.26,62.58-61.92,62.58"/><path class="cls-2" d="m1872.33,156.66c-55.58,0-101.69,43.21-101.73,106.23.04,62.99,46.15,106.22,101.73,106.22,33.47,0,68.75-10.43,87.34-36.64l-27.83-27.83c-12.16,14-30.68,22.74-53.72,22.74-36.47,0-60.9-21.48-60.9-52h156.18c.42-4.07.65-8.25.65-12.49-.04-63.01-39.57-106.23-101.73-106.23m-54.23,85.13c0-18.82,24.48-44.57,57.19-44.57,21.52,0,50.13,16.33,50.13,44.57h-107.32Z"/><path class="cls-2" d="m2039.14,262.88V83.91h-47.34v178.97c.06,62.32,48.75,105.29,107.89,106.2v-43.66c-35.9-.69-60.55-28.66-60.55-62.54"/><path class="cls-2" d="m2158,347.65c0,12.35-9.68,22.02-22.28,22.02s-22.43-9.68-22.43-22.02,9.97-21.77,22.43-21.77,22.28,9.71,22.28,21.77m-39.13,0c0,9.68,7.18,17.38,16.96,17.38s16.6-7.7,16.6-17.25-7.01-17.51-16.71-17.51-16.86,7.83-16.86,17.38m13.4,11.42h-5.04v-21.76c1.99-.42,4.78-.68,8.36-.68,4.1,0,5.96.68,7.57,1.59,1.18.93,2.11,2.65,2.11,4.78,0,2.39-1.86,4.26-4.5,5.03v.28c2.11.8,3.3,2.39,3.96,5.29.69,3.32,1.07,4.64,1.61,5.46h-5.46c-.66-.82-1.04-2.79-1.71-5.32-.4-2.39-1.74-3.46-4.52-3.46h-2.39v8.78Zm.12-12.35h2.41c2.79,0,5.05-.93,5.05-3.19,0-1.97-1.47-3.32-4.67-3.32-1.33,0-2.23.14-2.79.26v6.25Z"/><path class="cls-1" d="m536.03,226.57H233.94c1.45-4.83,2.24-9.92,2.24-15.21,0-29.12-23.69-52.83-52.81-52.83-24.88,0-45.73,17.29-51.31,40.46-4.86-1.47-9.99-2.27-15.31-2.27-29.13,0-52.83,23.7-52.83,52.82s23.71,52.84,52.83,52.84c5.32,0,10.45-.81,15.31-2.26,5.58,23.16,26.43,40.45,51.31,40.45,29.13,0,52.81-23.71,52.81-52.84,0-5.29-.8-10.39-2.24-15.2h204.89v63.38h24.49v-31.68h23.71v31.65h24.49v-63.35h24.5v-45.95Zm-352.65-38.74c12.96,0,23.53,10.56,23.53,23.53s-10.57,23.55-23.53,23.55-23.55-10.56-23.55-23.55,10.57-23.53,23.55-23.53m-90.15,61.71c0-12.97,10.55-23.52,23.53-23.52s23.54,10.55,23.54,23.52-10.56,23.55-23.54,23.55-23.53-10.57-23.53-23.55m90.15,61.73c-12.98,0-23.55-10.55-23.55-23.54s10.57-23.54,23.55-23.54,23.53,10.56,23.53,23.54-10.57,23.54-23.53,23.54"/></g></g></svg>