<?xml version="1.0" encoding="UTF-8"?><svg id="Capa_2" xmlns="http://www.w3.org/2000/svg" viewBox="0 0 3471.76 456.25"><defs><style>.cls-1{fill-rule:evenodd;}.cls-1,.cls-2,.cls-3,.cls-4{stroke-width:0px;}.cls-1,.cls-3{fill:#ffe524;}.cls-2{fill:#245ba7;}.cls-4{fill:#fff;}</style></defs><g id="Capa_1-2"><path class="cls-2" d="m581.77,0H18.77C8.41,0,0,8.41,0,18.79v418.66c0,10.36,8.41,18.79,18.77,18.79h563c10.37,0,18.76-8.43,18.76-18.79V18.79c0-10.38-8.39-18.79-18.76-18.79"/><path class="cls-3" d="m3452.98,0h-1637.35c-10.37,0-18.79,8.41-18.79,18.79v418.66c0,10.36,8.42,18.79,18.79,18.79h1637.35c10.37,0,18.78-8.43,18.78-18.79V18.79c0-10.38-8.41-18.79-18.78-18.79"/><path class="cls-2" d="m2344.52,157.09c-59.97,0-109.72,43.18-109.73,106.16.01,62.99,49.76,106.18,109.73,106.18s109.71-43.19,109.76-106.18c-.05-62.98-49.77-106.16-109.76-106.16m.56,168.71h-1.12c-36.63,0-61.89-28.25-61.89-62.55s25.26-62.56,61.89-62.56c.19,0,.37.05.55.05.19,0,.37-.05.56-.05,36.64,0,61.89,28.28,61.89,62.56s-25.25,62.55-61.89,62.55"/><path class="cls-2" d="m2188.31,288.39c-18.14,21.7-45.37,35.5-75.84,35.5-54.56,0-98.8-44.22-98.8-98.78s44.24-98.79,98.8-98.79c30.14,0,57.12,13.49,75.23,34.81l34.36-30.14c-26.94-30.73-66.78-50.2-111.26-50.2-81.04,0-146.73,64.62-146.73,144.31s65.7,144.32,146.73,144.32c44.78,0,84.89-19.74,111.8-50.84l-34.29-30.19Z"/><path class="cls-2" d="m2819.49,156.81c-60.04,0-109.89,43.66-109.89,106.32v192.87h47.36v-104.47c17.84,11.47,39.41,17.91,62.53,17.91,60.06,0,109.86-43.26,109.92-106.31-.06-63.08-49.86-106.32-109.92-106.32m.56,168.95h-1.12c-36.67,0-61.98-28.29-61.98-62.62s25.31-62.67,61.98-62.67c.19,0,.38.02.55.02.19,0,.38-.02.56-.02,36.69,0,61.99,28.32,61.99,62.67s-25.3,62.62-61.99,62.62"/><path class="cls-2" d="m2581.94,156.81c-60.06,0-109.91,43.66-109.91,106.32v192.87h47.36v-104.47c17.84,11.47,39.45,17.91,62.55,17.91,60.05,0,109.85-43.26,109.92-106.31-.08-63.08-49.87-106.32-109.92-106.32m.55,168.95h-1.11c-36.68,0-61.98-28.29-61.98-62.62s25.3-62.67,61.98-62.67c.19,0,.38.02.56.02s.36-.02.55-.02c36.69,0,61.98,28.32,61.98,62.67s-25.3,62.62-61.98,62.62"/><path class="cls-2" d="m3043.08,156.82c-55.62,0-101.8,43.23-101.84,106.3.04,63.05,46.22,106.32,101.84,106.32,33.51,0,68.78-10.45,87.41-36.69l-27.86-27.84c-12.16,14.02-30.72,22.78-53.74,22.78-36.55,0-60.99-21.51-60.99-52.06h156.36c.42-4.07.63-8.25.63-12.5-.06-63.07-39.61-106.3-101.83-106.3m-54.3,85.19c0-18.83,24.51-44.6,57.24-44.6,21.56,0,50.18,16.33,50.18,44.6h-107.42Z"/><path class="cls-2" d="m3210.05,263.13V83.99h-47.38v179.14c.04,62.38,48.79,105.39,107.97,106.31v-43.71c-35.92-.66-60.6-28.68-60.6-62.6"/><path class="cls-1" d="m536.56,226.78H234.17c1.45-4.81,2.25-9.93,2.25-15.22,0-29.16-23.71-52.9-52.87-52.9-24.87,0-45.76,17.32-51.35,40.51-4.88-1.47-10-2.27-15.32-2.27-29.16,0-52.89,23.7-52.89,52.88s23.72,52.88,52.89,52.88c5.32,0,10.44-.82,15.32-2.27,5.59,23.18,26.48,40.49,51.35,40.49,29.16,0,52.87-23.72,52.87-52.88,0-5.28-.8-10.4-2.25-15.23h205.11v63.45h24.51v-31.71h23.73v31.68h24.54v-63.41h24.51v-46Zm-353.01-38.78c13,0,23.58,10.57,23.58,23.56s-10.58,23.57-23.58,23.57-23.56-10.57-23.56-23.57,10.56-23.56,23.56-23.56m-90.24,61.78c0-13.01,10.57-23.57,23.56-23.57s23.56,10.57,23.56,23.57-10.56,23.57-23.56,23.57-23.56-10.59-23.56-23.57m90.24,61.77c-13,0-23.56-10.56-23.56-23.56s10.56-23.54,23.56-23.54,23.58,10.56,23.58,23.54-10.58,23.56-23.58,23.56"/><path class="cls-2" d="m1750.57,0H646.76c-10.38,0-18.79,8.41-18.79,18.79v418.66c0,10.36,8.41,18.79,18.79,18.79h1103.81c10.36,0,18.77-8.43,18.77-18.79V18.79c0-10.38-8.41-18.79-18.77-18.79"/><path class="cls-4" d="m1205.26,165.58c-60.18,0-110.07,43.35-110.1,106.49.02,63.18,49.91,106.5,110.1,106.5s110.01-43.33,110.06-106.5c-.05-63.15-49.91-106.49-110.06-106.49m.54,169.25c-.19,0-.38,0-.54,0-.22,0-.4,0-.59,0-36.74,0-62.05-28.33-62.05-62.76s25.31-62.74,62.05-62.74c.19,0,.37.02.59.02.16,0,.35-.02.54-.02,36.75,0,62.06,28.36,62.06,62.74s-25.31,62.76-62.06,62.76"/><path class="cls-4" d="m1555.69,165.58c-55.73,0-101.96,43.35-102,106.49.04,63.18,46.27,106.5,102,106.5,33.56,0,68.91-10.47,87.56-36.73l-27.91-27.92c-12.18,14.05-30.77,22.8-53.84,22.8-36.57,0-61.04-21.52-61.04-52.14h156.57c.43-4.06.65-8.22.67-12.52-.06-63.14-39.68-106.49-102.01-106.49m-54.36,85.34c0-18.86,24.54-44.69,57.3-44.69,21.57,0,50.27,16.39,50.27,44.69h-107.58Z"/><path class="cls-4" d="m1444.83,167.94c-4.28-.57-8.63-.89-13.04-.89-18.39,0-37.67,4.38-50.32,17.01v-13.65h-48.37v208.15h48.37v-117.47c0-27.71,22.58-50.28,50.32-50.28,4.52,0,8.88.66,13.04,1.78v-44.66Z"/><path class="cls-4" d="m1064.34,149.38c4.52,0,8.88.69,13.02,1.81v-44.68c-4.24-.57-8.59-.87-13.02-.87-18.39,0-98.67,0-98.67,98.67v174.26h48.37v-125.48h63.32v-43.76h-63.32v-9.64c0-27.72,22.56-50.32,50.3-50.32"/><path class="cls-4" d="m835.41,107.01c-.59,0-100.42-.12-100.42,98.56v174.26h48.38v-91.72h104.06v91.72h48.38v-174.26c0-98.68-99.82-98.57-100.41-98.56m52.02,137.38h-104.06v-43.44c0-24.45,17.55-44.84,40.71-49.35,0,0,7.42-.68,11.33-.83,3.88.15,11.3.83,11.3.83,23.17,4.51,40.73,24.89,40.73,49.35v43.44Z"/><path class="cls-2" d="m3329.27,347.33c0,12.4-9.73,22.12-22.39,22.12s-22.52-9.72-22.52-22.12,10.01-21.86,22.52-21.86,22.39,9.74,22.39,21.86m-39.31,0c0,9.72,7.2,17.45,17.04,17.45s16.68-7.73,16.68-17.31-7.06-17.62-16.8-17.62-16.92,7.87-16.92,17.47m13.46,11.46h-5.07v-21.86c1.99-.41,4.8-.68,8.41-.68,4.11,0,5.97.68,7.59,1.61,1.19.93,2.13,2.67,2.13,4.81,0,2.4-1.87,4.26-4.52,5.05v.29c2.11.78,3.31,2.39,3.98,5.32.68,3.34,1.07,4.66,1.62,5.47h-5.5c-.66-.81-1.04-2.79-1.71-5.34-.4-2.41-1.75-3.47-4.53-3.47h-2.4v8.8Zm.11-12.4h2.41c2.81,0,5.08-.93,5.08-3.2,0-1.99-1.47-3.32-4.69-3.32-1.34,0-2.25.12-2.8.26v6.27Z"/></g></svg>