<?xml version="1.0" encoding="UTF-8"?><svg id="Capa_2" xmlns="http://www.w3.org/2000/svg" viewBox="0 0 2588.77 456.57"><defs><style>.cls-1{fill:#ffe524;fill-rule:evenodd;}.cls-1,.cls-2{stroke-width:0px;}.cls-2{fill:#245ba7;}</style></defs><g id="Capa_1-2"><path class="cls-2" d="m582.19,0H18.79C8.41,0,0,8.42,0,18.79v419c0,10.37,8.41,18.77,18.79,18.77h563.4c10.37,0,18.78-8.41,18.78-18.77V18.79c0-10.37-8.42-18.79-18.78-18.79"/><path class="cls-1" d="m536.94,226.95H234.35c1.45-4.82,2.25-9.93,2.25-15.23,0-29.17-23.74-52.92-52.91-52.92-24.91,0-45.8,17.32-51.4,40.53-4.86-1.46-10-2.29-15.32-2.29-29.18,0-52.92,23.75-52.92,52.93s23.73,52.93,52.92,52.93c5.33,0,10.46-.81,15.32-2.29,5.6,23.21,26.49,40.52,51.4,40.52,29.17,0,52.91-23.73,52.91-52.91,0-5.31-.8-10.4-2.25-15.23h205.23v63.49h24.56v-31.74h23.73v31.71h24.54v-63.46h24.53v-46.04Zm-353.25-38.8c12.98,0,23.58,10.58,23.58,23.57s-10.6,23.58-23.58,23.58-23.59-10.58-23.59-23.58,10.57-23.57,23.59-23.57m-90.31,61.83c0-13.01,10.58-23.59,23.58-23.59s23.57,10.58,23.57,23.59-10.57,23.58-23.57,23.58-23.58-10.58-23.58-23.58m90.31,61.83c-13.01,0-23.59-10.56-23.59-23.58s10.57-23.58,23.59-23.58,23.58,10.59,23.58,23.58-10.6,23.58-23.58,23.58"/><path class="cls-2" d="m1007.17,160.76c-55.85,0-102.14,40.21-102.17,98.84.03,58.62,46.32,98.84,102.17,98.84,21.49,0,41.56-5.99,58.13-16.66v16.66h44.04v-98.84c0-58.25-46.33-98.84-102.17-98.84m.52,157.06c-.18,0-.34,0-.52,0s-.35,0-.52,0c-34.1,0-57.62-26.31-57.62-58.22s23.53-58.25,57.62-58.25c.17,0,.35.02.52.02s.33-.02.52-.02c34.1,0,57.61,26.31,57.61,58.25s-23.52,58.22-57.61,58.22"/><path class="cls-2" d="m1225.61,162.11c-17.08,0-33,4.78-46.7,12.93v-14.28h-44.91v197.69h44.91v-104.73c0-25.75,20.95-46.7,46.7-46.7s46.7,20.94,46.7,46.7v104.73h44.88v-104.73c0-50.51-41.09-91.6-91.58-91.6"/><path class="cls-2" d="m791.21,92.33c51.18,0,81.28,30.1,81.28,71.87,0,28.23-16.54,49.31-39.5,57.58,28.22,7.54,47.79,31.97,47.79,63.6,0,42.9-33.13,73.74-82.8,73.74h-98.6V92.33h91.83Zm-6.04,112.89c26.37,0,42.16-15.07,42.16-37.25s-15.8-37.25-43.29-37.25h-39.88v74.5h41.01Zm4.9,115.53c27.1,0,44.79-14.69,44.79-38.39s-15.44-39.12-43.29-39.12h-47.41v77.51h45.91Z"/><path class="cls-2" d="m1682.88,161.96c-55.1,0-100.81,39.68-100.86,97.56.06,57.88,45.76,97.57,100.86,97.57s100.82-39.69,100.87-97.57c-.05-57.88-45.76-97.56-100.87-97.56m.53,155.03h-1.03c-33.67,0-56.87-25.95-56.87-57.47s23.21-57.48,56.87-57.48c.17,0,.34.01.49.01.17,0,.34-.01.53-.01,33.66,0,56.86,25.99,56.86,57.48s-23.2,57.47-56.86,57.47"/><path class="cls-2" d="m1539.33,282.62c-16.66,19.94-41.68,32.63-69.69,32.63-50.15,0-90.79-40.65-90.79-90.8s40.64-90.78,90.79-90.78c27.72,0,52.48,12.41,69.12,31.99l31.58-27.71c-24.74-28.23-61.38-46.15-102.24-46.15-74.47,0-134.86,59.4-134.86,132.64s60.4,132.63,134.86,132.63c41.16,0,78-18.14,102.73-46.72l-31.5-27.73Z"/><path class="cls-2" d="m2119.4,161.69c-55.18,0-101.02,40.12-101.02,97.7v177.27h43.55v-96.02c16.37,10.54,36.21,16.45,57.47,16.45,55.19,0,100.96-39.75,100.99-97.7-.03-57.95-45.8-97.7-100.99-97.7m.5,155.28c-.17,0-.34-.02-.5-.02-.18,0-.34.02-.54.02-33.69,0-56.93-26.01-56.93-57.58s23.24-57.59,56.93-57.59c.2,0,.36.02.54.02.17,0,.33-.02.5-.02,33.71,0,56.96,26.02,56.96,57.59s-23.24,57.58-56.96,57.58"/><path class="cls-2" d="m1901.07,161.69c-55.19,0-101,40.12-101,97.7v177.27h43.53v-96.02c16.39,10.54,36.21,16.45,57.47,16.45,55.2,0,100.96-39.75,101-97.7-.05-57.95-45.81-97.7-101-97.7m.51,155.28c-.17,0-.34-.02-.51-.02s-.36.02-.52.02c-33.71,0-56.94-26.01-56.94-57.58s23.24-57.59,56.94-57.59c.17,0,.36.02.52.02s.34-.02.51-.02c33.71,0,56.95,26.02,56.95,57.59s-23.25,57.58-56.95,57.58"/><path class="cls-2" d="m2324.85,161.69c-51.14,0-93.54,39.76-93.55,97.69.02,57.96,42.41,97.71,93.55,97.71,30.8,0,63.23-9.57,80.35-33.71l-25.6-25.59c-11.19,12.9-28.23,20.94-49.4,20.94-33.57,0-56.04-19.78-56.04-47.84h143.7c.36-3.74.58-7.58.58-11.51-.07-57.94-36.41-97.69-93.59-97.69m-49.89,78.29c0-17.31,22.53-40.99,52.61-40.99,19.79,0,46.12,15.01,46.12,40.99h-98.73Z"/><path class="cls-2" d="m2478.31,259.39V94.76h-43.55v164.62c.06,57.35,44.83,96.86,99.24,97.7v-40.16c-33.01-.63-55.69-26.36-55.69-57.55"/><path class="cls-2" d="m2588.77,336.86c0,11.35-8.9,20.23-20.47,20.23s-20.59-8.88-20.59-20.23,9.15-19.98,20.59-19.98,20.47,8.91,20.47,19.98m-35.95,0c0,8.89,6.59,15.96,15.59,15.96s15.24-7.07,15.24-15.83-6.46-16.1-15.36-16.1-15.47,7.2-15.47,15.96m12.31,10.49h-4.63v-19.98c1.83-.38,4.38-.63,7.68-.63,3.77,0,5.47.63,6.93,1.48,1.1.85,1.94,2.43,1.94,4.37,0,2.2-1.69,3.91-4.13,4.62v.26c1.94.72,3.05,2.19,3.66,4.86.61,3.05.97,4.28,1.47,5.01h-5.02c-.61-.74-.95-2.55-1.57-4.87-.35-2.21-1.58-3.19-4.14-3.19h-2.19v8.06Zm.11-11.33h2.21c2.55,0,4.62-.84,4.62-2.93,0-1.82-1.34-3.04-4.29-3.04-1.21,0-2.05.11-2.55.23v5.74Z"/></g></svg>