<svg width="16" height="16" viewBox="0 0 16 16" fill="none" xmlns="http://www.w3.org/2000/svg">
<path d="M9.95139 5.41103C10.1784 5.25383 10.2351 4.94233 10.0779 4.71527C9.9207 4.48821 9.60922 4.43157 9.38218 4.58877L5.44472 7.31493C4.96606 7.64633 4.96606 8.35396 5.44472 8.68536L9.38218 11.4115C9.60922 11.5687 9.9207 11.5121 10.0779 11.285C10.2351 11.058 10.1784 10.7465 9.95139 10.5893L6.21186 8.00015L9.95139 5.41103Z" fill="black"/>
<path fill-rule="evenodd" clip-rule="evenodd" d="M14.6667 8.0001C14.6667 4.3179 11.682 1.33289 8.00008 1.33289C4.31818 1.33289 1.33341 4.3179 1.33341 8.0001C1.33341 11.6823 4.31818 14.6673 8.00008 14.6673C11.682 14.6673 14.6667 11.6823 14.6667 8.0001ZM8.00008 2.33297C11.1297 2.33297 13.6667 4.87023 13.6667 8.0001C13.6667 11.13 11.1297 13.6672 8.00008 13.6672C4.87047 13.6672 2.33341 11.13 2.33341 8.0001C2.33341 4.87023 4.87047 2.33297 8.00008 2.33297Z" fill="black"/>
</svg>
